<svg xmlns="http://www.w3.org/2000/svg" width="22.719" height="22.719" viewBox="0 0 22.719 22.719"><g transform="translate(0)"><g transform="translate(0.444 0.444)"><g transform="translate(12.884)"><path d="M300.365,16.616a5.685,5.685,0,0,1,2.332,2.332h0a3.646,3.646,0,0,1,1.154-2.065l.15-.146,1.6-1.553,3.385-3.288a1.109,1.109,0,0,0-1.569-1.569l-3.288,3.385-1.553,1.6-.146.15a3.646,3.646,0,0,1-2.065,1.154Z" transform="translate(-300.365 -10)" fill="#e3eaef" fill-rule="evenodd"/></g><g transform="translate(0 1.42)"><path d="M26.521,47.318A7.989,7.989,0,1,1,25.1,45.893l1.553-1.6a10.207,10.207,0,1,0,1.471,1.471l-1.6,1.553Z" transform="translate(-10 -42.002)" fill="#fff" fill-rule="evenodd"/></g><g transform="translate(2.219 3.639)"><path d="M73,97.31a5.685,5.685,0,0,0-2.332-2.332h0a3.646,3.646,0,0,0,2.065-1.154l.146-.15A7.986,7.986,0,1,0,74.3,95.1l-.15.146A3.645,3.645,0,0,0,73,97.31Z" transform="translate(-60 -92.002)" fill="#f2f2f2" fill-rule="evenodd"/></g><g transform="translate(4.689 10.333)"><circle cx="0.887" cy="0.887" r="0.887"/></g><g transform="translate(10.685 11.355)"><circle cx="0.888" cy="0.888" r="0.888"/></g><g transform="translate(11.414 15.21)"><circle cx="0.888" cy="0.888" r="0.888"/></g><g transform="translate(6.572 14.372)"><path d="M160.573,335.951a.444.444,0,0,1-.115-.015,4.961,4.961,0,0,1-2.221-1.283.444.444,0,1,1,.628-.628,4.073,4.073,0,0,0,1.824,1.053.444.444,0,0,1-.115.872Z" transform="translate(-158.106 -333.896)"/></g><g transform="translate(7.733 8.312)"><path d="M184.713,199.056a.444.444,0,0,1-.314-.758,3.314,3.314,0,0,1,3.2-.858.444.444,0,1,1-.23.857,2.426,2.426,0,0,0-2.343.628.443.443,0,0,1-.314.13Z" transform="translate(-184.269 -197.328)"/></g><g transform="translate(13.669 12.35)"><path d="M318.494,290.291a.444.444,0,0,1-.384-.666,4.071,4.071,0,0,0,.406-.981.444.444,0,0,1,.857.23,4.958,4.958,0,0,1-.5,1.2.444.444,0,0,1-.385.222Z" transform="translate(-318.05 -288.315)"/></g><g transform="translate(7.352 6.761)"><path d="M176.125,163.252a.444.444,0,1,1,0-.887h0a.444.444,0,0,1,0,.887Z" transform="translate(-175.681 -162.365)"/></g><g transform="translate(8.04 11.753)"><path d="M191.625,275.752a.444.444,0,1,1,0-.887h0a.444.444,0,0,1,0,.887Z" transform="translate(-191.181 -274.865)"/></g><g transform="translate(12.832 9.911)"><path d="M299.618,234.252a.444.444,0,1,1,0-.887h0a.444.444,0,0,1,0,.887Z" transform="translate(-299.174 -233.365)"/></g><g transform="translate(4.489 13.217)"><path d="M111.618,308.752a.444.444,0,1,1,0-.887h0a.444.444,0,1,1,0,.887Z" transform="translate(-111.174 -307.865)"/></g><g transform="translate(9.703 17.211)"><path d="M229.118,398.752a.444.444,0,1,1,0-.887h0a.444.444,0,1,1,0,.887Z" transform="translate(-228.674 -397.865)"/></g></g><path d="M22.719,1.572A1.556,1.556,0,0,0,21.159,0h-.011a1.516,1.516,0,0,0-1.085.46l-3.01,3.1a10.653,10.653,0,1,0,2.107,2.107l3.1-3.01A1.516,1.516,0,0,0,22.719,1.572Zm-2.307,10.5A9.763,9.763,0,1,1,16.428,4.2L15.075,5.6a3.288,3.288,0,0,1-1.681,1,6.086,6.086,0,0,0-1.159-.442.444.444,0,0,0-.23.857,5.252,5.252,0,0,1,3.7,3.7.444.444,0,0,0,.857-.23,6.086,6.086,0,0,0-.442-1.159,3.288,3.288,0,0,1,1-1.681L18.517,6.29a9.8,9.8,0,0,1,1.895,5.779ZM21.64,2.02,16.505,7.007a4.566,4.566,0,0,0-.988,1.349A6.167,6.167,0,0,0,14.363,7.2a4.566,4.566,0,0,0,1.349-.988L20.7,1.079a.635.635,0,0,1,.455-.191h0a.669.669,0,0,1,.673.678.634.634,0,0,1-.191.455Z" transform="translate(0)"/></g></svg>