<svg xmlns="http://www.w3.org/2000/svg" width="24.988" height="22.45" viewBox="0 0 24.988 22.45"><path d="M24,43.65a1.7,1.7,0,0,0-.2-1.92,2.438,2.438,0,0,0,0-4.129,1.7,1.7,0,0,0,.2-1.92,1.466,1.466,0,0,0,.987-1.384,8.32,8.32,0,0,0-8.3-8.3H8.3A8.32,8.32,0,0,0,0,34.3a1.466,1.466,0,0,0,.987,1.384,1.7,1.7,0,0,0,.2,1.92,2.438,2.438,0,0,0,0,4.129,1.7,1.7,0,0,0-.2,1.92A1.466,1.466,0,0,0,0,45.034v.976a2.443,2.443,0,0,0,2.44,2.44H22.548a2.443,2.443,0,0,0,2.44-2.44v-.976A1.466,1.466,0,0,0,24,43.65ZM8.3,26.976h8.394A7.329,7.329,0,0,1,24.012,34.3a.489.489,0,0,1-.488.488H1.464A.489.489,0,0,1,.976,34.3,7.329,7.329,0,0,1,8.3,26.976Zm-6.54,9.517a.733.733,0,0,1,.732-.732H22.5a.732.732,0,1,1,0,1.464,1.96,1.96,0,0,0-1.074.307,1.064,1.064,0,0,1-1.186,0,2.031,2.031,0,0,0-2.149,0,1.064,1.064,0,0,1-1.186,0,2.031,2.031,0,0,0-2.149,0,1.064,1.064,0,0,1-1.186,0,2.031,2.031,0,0,0-2.149,0,1.064,1.064,0,0,1-1.186,0,2.031,2.031,0,0,0-2.149,0,1.064,1.064,0,0,1-1.186,0,2.031,2.031,0,0,0-2.149,0,1.064,1.064,0,0,1-1.186,0,1.959,1.959,0,0,0-1.074-.307.733.733,0,0,1-.732-.732ZM2.489,38.2a1.022,1.022,0,0,1,.593.181,2.031,2.031,0,0,0,2.149,0,1.064,1.064,0,0,1,1.186,0,2.031,2.031,0,0,0,2.149,0,1.064,1.064,0,0,1,1.186,0,2.031,2.031,0,0,0,2.148,0,1.064,1.064,0,0,1,1.186,0,2.031,2.031,0,0,0,2.149,0,1.064,1.064,0,0,1,1.186,0,2.031,2.031,0,0,0,2.149,0,1.064,1.064,0,0,1,1.186,0,2.031,2.031,0,0,0,2.149,0A1.022,1.022,0,0,1,22.5,38.2a1.464,1.464,0,1,1,0,2.928,1.022,1.022,0,0,1-.593-.181,2.031,2.031,0,0,0-2.149,0,1.064,1.064,0,0,1-1.186,0,2.031,2.031,0,0,0-2.149,0,1.064,1.064,0,0,1-1.186,0,2.031,2.031,0,0,0-2.149,0,1.064,1.064,0,0,1-1.186,0,2.031,2.031,0,0,0-2.148,0,1.064,1.064,0,0,1-1.186,0,2.031,2.031,0,0,0-2.148,0,1.064,1.064,0,0,1-1.186,0,2.031,2.031,0,0,0-2.149,0,1.022,1.022,0,0,1-.593.181,1.464,1.464,0,0,1,0-2.928Zm1.074,3.6a1.064,1.064,0,0,1,1.186,0,2.031,2.031,0,0,0,2.149,0,1.064,1.064,0,0,1,1.186,0,2.031,2.031,0,0,0,2.149,0,1.064,1.064,0,0,1,1.186,0,2.031,2.031,0,0,0,2.148,0,1.064,1.064,0,0,1,1.186,0,2.031,2.031,0,0,0,2.149,0,1.064,1.064,0,0,1,1.186,0,2.031,2.031,0,0,0,2.149,0,1.064,1.064,0,0,1,1.186,0,1.96,1.96,0,0,0,1.074.307.732.732,0,1,1,0,1.464H2.489a.732.732,0,1,1,0-1.464A1.959,1.959,0,0,0,3.563,41.8ZM24.012,46.01a1.466,1.466,0,0,1-1.464,1.464H2.44A1.466,1.466,0,0,1,.976,46.01v-.976a.489.489,0,0,1,.488-.488h22.06a.489.489,0,0,1,.488.488v.976Z" transform="translate(0 -26)" fill="#ff711b"/><path d="M149.441,78.761a.488.488,0,0,0,0-.976h0a.488.488,0,1,0,0,.976Z" transform="translate(-141.683 -75.258)" fill="#ff711b"/><path d="M221.441,136.361a.488.488,0,1,0,0-.976h0a.488.488,0,1,0,0,.976Z" transform="translate(-210.169 -130.046)" fill="#ff711b"/><path d="M294.641,85.961a.488.488,0,0,0,0-.976h0a.488.488,0,0,0,0,.976Z" transform="translate(-279.797 -82.106)" fill="#ff711b"/><path d="M389.448,101.561a.488.488,0,0,0,0-.976h0a.488.488,0,1,0,0,.976Z" transform="translate(-369.977 -96.945)" fill="#ff711b"/><path d="M103.841,131.561a.488.488,0,1,0,0-.976h0a.488.488,0,0,0,0,.976Z" transform="translate(-98.309 -125.481)" fill="#ff711b"/><path d="M345.649,144.76a.488.488,0,0,0,0-.976h0a.488.488,0,1,0,0,.976Z" transform="translate(-328.315 -138.036)" fill="#ff711b"/></svg>