<svg xmlns="http://www.w3.org/2000/svg" width="18.826" height="22.997" viewBox="0 0 18.826 22.997"><path d="M65.315.375A1.339,1.339,0,0,0,64.323,0,22.605,22.605,0,0,0,47.174,9.048a1.351,1.351,0,0,0,.321,1.925L49.3,12.205h0l1.074.732v.937a.449.449,0,1,0,.9,0V12.7a.45.45,0,0,0-.2-.371l-.894-.609a18.9,18.9,0,0,1,1.276-1.586,17.889,17.889,0,0,1,1.486-1.477A18.6,18.6,0,0,1,56.3,6.289a17.885,17.885,0,0,1,1.892-.91l.244-.1A2.443,2.443,0,1,0,63,4.112q.911-.113,1.83-.135V15.269a2.44,2.44,0,0,0,0,4.617V21.7l-2.111-1.439a.449.449,0,0,0-.7.371v1.041a.412.412,0,0,1-.825,0V19.458a.452.452,0,0,0-.029-.159A2.441,2.441,0,1,0,57.209,16.5L56.6,16.09a.449.449,0,0,0-.7.371v1.727a.412.412,0,0,1-.825,0v-2.9a.449.449,0,0,0-.2-.371L52.8,13.5a.449.449,0,0,0-.7.371v6a.412.412,0,1,1-.825,0v-2.41a.449.449,0,0,0-.9,0v2.41a1.311,1.311,0,1,0,2.622,0V14.723l1.176.8v2.664a1.311,1.311,0,0,0,2.622,0v-.878l.372.254h0l3.076,2.1.05.034v1.978a1.311,1.311,0,0,0,2.622,0v-.192l2.111,1.439a.453.453,0,0,0,.7-.371V1.351A1.34,1.34,0,0,0,65.315.375ZM57.956,17.014a1.528,1.528,0,0,1,.8-.778,1.544,1.544,0,0,1,1.719,2.492l-1.662-1.132ZM47.81,9.931a.449.449,0,0,1,.084-.345A21.706,21.706,0,0,1,64.361.9h.02a.452.452,0,0,1,.452.453V3.078a19.5,19.5,0,0,0-2.147.169c-.2.027-.406.056-.608.089a19.4,19.4,0,0,0-3.2.816,20.158,20.158,0,0,0-2.152.9,18.552,18.552,0,0,0-2.059,1.168A20.166,20.166,0,0,0,52.8,7.6a19.721,19.721,0,0,0-1.706,1.609,19.21,19.21,0,0,0-1.476,1.769q-.086.116-.17.233L48,10.23A.448.448,0,0,1,47.81,9.931Zm14.5-4.049a1.544,1.544,0,0,1-2.931-.948,18,18,0,0,1,2.058-.561c.19-.039.381-.077.572-.111a1.544,1.544,0,0,1,.3,1.62Zm1.9,12.306a1.544,1.544,0,0,1,.625-1.934V18.9A1.539,1.539,0,0,1,64.208,18.188Z" transform="translate(-46.905 0)"/><path d="M179.088,195.063a2.442,2.442,0,1,0-1.339-1.3A2.44,2.44,0,0,0,179.088,195.063Zm-.53-2.84a1.544,1.544,0,1,1,.016,1.181A1.533,1.533,0,0,1,178.557,192.223Z" transform="translate(-171.669 -181.785)"/><path d="M326.933,215.517a2.442,2.442,0,1,0-1.339-1.3A2.437,2.437,0,0,0,326.933,215.517Zm-.53-2.84a1.543,1.543,0,1,1,.016,1.181A1.533,1.533,0,0,1,326.4,212.677Z" transform="translate(-312.861 -201.318)"/><path d="M124.544,339.169a.449.449,0,1,0-.44-.358A.454.454,0,0,0,124.544,339.169Z" transform="translate(-120.621 -323.048)"/></svg>