<svg xmlns="http://www.w3.org/2000/svg" width="13.006" height="22.487" viewBox="0 0 13.006 22.487"><path d="M120.942,4.569a3.166,3.166,0,0,0-2.81-3.141V.352A.351.351,0,0,0,117.78,0h-5.969l-.01,0a3.869,3.869,0,0,0-3.865,3.865s0,0,0,.007V18.595c0,.009,0,.018,0,.027a3.869,3.869,0,0,0,3.865,3.865h5.978a3.166,3.166,0,0,0,3.163-3.163c0-.014,0-.027,0-.04V4.579s0-.006,0-.01ZM111.793.7l.008,0h5.628V1.751s0,0,0,.007,0,0,0,.007V14.757H111.8A3.86,3.86,0,0,0,108.64,16.4V3.866s0,0,0-.006A3.165,3.165,0,0,1,111.793.7Zm5.986,21.081H111.8a3.165,3.165,0,0,1-3.162-3.157s0,0,0-.006v-.027a3.165,3.165,0,0,1,3.161-3.135h5.628v.7H111.8a2.46,2.46,0,1,0,0,4.92h5.985a1.756,1.756,0,0,0-.007-3.513H111.8a1.054,1.054,0,0,0,0,2.108h5.979a.351.351,0,0,0,.351-.351v-.99a1.051,1.051,0,0,1-.351,2.043H111.8a1.757,1.757,0,0,1,0-3.514h5.982a2.461,2.461,0,0,1,2.454,2.419v.04s0,.005,0,.008a2.463,2.463,0,0,1-2.46,2.452Zm-.351-3.514v.7H111.8a.351.351,0,1,1,0-.7Zm2.809-13.7V17.338a3.16,3.16,0,0,0-2.105-1.155V2.138a2.461,2.461,0,0,1,2.107,2.423s0,.006,0,.008Z" transform="translate(-107.936)"/></svg>